<svg width="0" height="0" class="hidden">
<symbol viewBox="0 0 20 20" xmlns="http://www.w3.org/2000/svg" id="likes">
<path d="M18.7633 10.5094C19.157 9.98909 19.375 9.35159 19.375 8.6883C19.375 7.63596 18.7867 6.63987 17.8398 6.0844C17.5961 5.94142 17.3185 5.86617 17.0359 5.86643H11.4156L11.5563 2.98596C11.5891 2.28987 11.343 1.62893 10.8648 1.12502C10.6302 0.876652 10.3471 0.679038 10.0331 0.544395C9.71905 0.409752 9.38074 0.34094 9.03906 0.342211C7.82031 0.342211 6.74219 1.16252 6.41875 2.33674L4.40547 9.62581H1.375C0.960156 9.62581 0.625 9.96096 0.625 10.3758V18.9071C0.625 19.3219 0.960156 19.6571 1.375 19.6571H15.468C15.6836 19.6571 15.8945 19.6149 16.0891 19.5305C17.2047 19.0547 17.9242 17.9649 17.9242 16.7555C17.9242 16.4602 17.882 16.1696 17.7977 15.8883C18.1914 15.368 18.4094 14.7305 18.4094 14.0672C18.4094 13.7719 18.3672 13.4813 18.2828 13.2C18.6766 12.6797 18.8945 12.0422 18.8945 11.3789C18.8898 11.0836 18.8477 10.7906 18.7633 10.5094ZM2.3125 17.9696V11.3133H4.21094V17.9696H2.3125ZM17.2281 9.69612L16.7148 10.1414L17.0406 10.7367C17.148 10.9328 17.2036 11.153 17.2023 11.3766C17.2023 11.7633 17.0336 12.1313 16.743 12.3844L16.2297 12.8297L16.5555 13.425C16.6628 13.6211 16.7185 13.8413 16.7172 14.0649C16.7172 14.4516 16.5484 14.8196 16.2578 15.0727L15.7445 15.518L16.0703 16.1133C16.1776 16.3094 16.2333 16.5296 16.232 16.7531C16.232 17.2781 15.9227 17.7516 15.4445 17.9672H5.71094V11.2383L8.04297 2.78909C8.1031 2.57252 8.23219 2.38147 8.41066 2.24486C8.58914 2.10825 8.80728 2.03354 9.03203 2.03205C9.21016 2.03205 9.38594 2.08362 9.52656 2.18909C9.75859 2.36252 9.88281 2.62502 9.86875 2.90393L9.64375 7.55393H17.0125C17.4297 7.8094 17.6875 8.24065 17.6875 8.6883C17.6875 9.07502 17.5188 9.44065 17.2281 9.69612Z" />
</symbol>

<symbol viewBox="0 0 22 22" xmlns="http://www.w3.org/2000/svg" id="comments">
<path d="M9.87519 11C9.87519 11.2984 9.99372 11.5845 10.2047 11.7955C10.4157 12.0065 10.7018 12.125 11.0002 12.125C11.2986 12.125 11.5847 12.0065 11.7957 11.7955C12.0067 11.5845 12.1252 11.2984 12.1252 11C12.1252 10.7016 12.0067 10.4155 11.7957 10.2045C11.5847 9.99353 11.2986 9.875 11.0002 9.875C10.7018 9.875 10.4157 9.99353 10.2047 10.2045C9.99372 10.4155 9.87519 10.7016 9.87519 11ZM14.5627 11C14.5627 11.2984 14.6812 11.5845 14.8922 11.7955C15.1032 12.0065 15.3893 12.125 15.6877 12.125C15.9861 12.125 16.2722 12.0065 16.4832 11.7955C16.6942 11.5845 16.8127 11.2984 16.8127 11C16.8127 10.7016 16.6942 10.4155 16.4832 10.2045C16.2722 9.99353 15.9861 9.875 15.6877 9.875C15.3893 9.875 15.1032 9.99353 14.8922 10.2045C14.6812 10.4155 14.5627 10.7016 14.5627 11ZM5.18769 11C5.18769 11.2984 5.30622 11.5845 5.5172 11.7955C5.72818 12.0065 6.01433 12.125 6.31269 12.125C6.61106 12.125 6.89721 12.0065 7.10819 11.7955C7.31917 11.5845 7.43769 11.2984 7.43769 11C7.43769 10.7016 7.31917 10.4155 7.10819 10.2045C6.89721 9.99353 6.61106 9.875 6.31269 9.875C6.01433 9.875 5.72818 9.99353 5.5172 10.2045C5.30622 10.4155 5.18769 10.7016 5.18769 11ZM20.6846 6.93125C20.1549 5.67266 19.3955 4.54297 18.4275 3.57266C17.4663 2.60796 16.3253 1.84114 15.0689 1.31563C13.7799 0.774219 12.4111 0.5 11.0002 0.5H10.9533C9.53301 0.507031 8.15723 0.788281 6.86348 1.34141C5.61791 1.87232 4.48753 2.64049 3.53535 3.60312C2.57676 4.57109 1.82441 5.69609 1.3041 6.95C0.765038 8.24844 0.493163 9.62891 0.500194 11.0492C0.508147 12.6769 0.893222 14.2806 1.62519 15.7344V19.2969C1.62519 19.5828 1.73878 19.857 1.94097 20.0592C2.14316 20.2614 2.41738 20.375 2.70332 20.375H6.26816C7.72198 21.107 9.32565 21.492 10.9533 21.5H11.0025C12.4064 21.5 13.7682 21.2281 15.0502 20.6961C16.3002 20.1768 17.437 19.419 18.3971 18.4648C19.365 17.5063 20.1268 16.3859 20.6588 15.1367C21.2119 13.843 21.4932 12.4672 21.5002 11.0469C21.5072 9.61953 21.2307 8.23438 20.6846 6.93125ZM17.1432 17.1969C15.5002 18.8234 13.3205 19.7188 11.0002 19.7188H10.9604C9.54707 19.7117 8.14316 19.3602 6.90332 18.6992L6.70644 18.5938H3.40644V15.2938L3.30098 15.0969C2.64004 13.857 2.28848 12.4531 2.28144 11.0398C2.27207 8.70312 3.16504 6.50937 4.80332 4.85703C6.43926 3.20469 8.62598 2.29062 10.9627 2.28125H11.0025C12.1744 2.28125 13.3111 2.50859 14.3822 2.95859C15.4275 3.39687 16.365 4.02734 17.1713 4.83359C17.9752 5.6375 18.608 6.57734 19.0463 7.62266C19.501 8.70547 19.7283 9.85391 19.7236 11.0398C19.7096 13.3742 18.7932 15.5609 17.1432 17.1969Z" />
</symbol>

<symbol viewBox="0 0 20 20" xmlns="http://www.w3.org/2000/svg" id="save">
<path d="M18.9367 4.87422L15.1258 1.06328C14.95 0.8875 14.7344 0.758594 14.5 0.688281V0.625H1.375C0.960156 0.625 0.625 0.960156 0.625 1.375V18.625C0.625 19.0398 0.960156 19.375 1.375 19.375H18.625C19.0398 19.375 19.375 19.0398 19.375 18.625V5.93359C19.375 5.53516 19.218 5.15547 18.9367 4.87422ZM7 2.3125H13V4.75H7V2.3125ZM17.6875 17.6875H2.3125V2.3125H5.5V5.5C5.5 5.91484 5.83516 6.25 6.25 6.25H13.75C14.1648 6.25 14.5 5.91484 14.5 5.5V2.82344L17.6875 6.01094V17.6875ZM10 8.35938C8.13672 8.35938 6.625 9.87109 6.625 11.7344C6.625 13.5977 8.13672 15.1094 10 15.1094C11.8633 15.1094 13.375 13.5977 13.375 11.7344C13.375 9.87109 11.8633 8.35938 10 8.35938ZM10 13.6094C8.96406 13.6094 8.125 12.7703 8.125 11.7344C8.125 10.6984 8.96406 9.85938 10 9.85938C11.0359 9.85938 11.875 10.6984 11.875 11.7344C11.875 12.7703 11.0359 13.6094 10 13.6094Z" />
</symbol>

<symbol viewBox="0 0 18 20" xmlns="http://www.w3.org/2000/svg" id="share">
<path d="M14.625 13.5625C13.957 13.5625 13.3406 13.7969 12.8578 14.1883L8.00156 10.675C8.08288 10.2287 8.08288 9.77133 8.00156 9.325L12.8578 5.81172C13.3406 6.20312 13.957 6.4375 14.625 6.4375C16.1766 6.4375 17.4375 5.17656 17.4375 3.625C17.4375 2.07344 16.1766 0.8125 14.625 0.8125C13.0734 0.8125 11.8125 2.07344 11.8125 3.625C11.8125 3.89687 11.85 4.15703 11.9227 4.40547L7.31016 7.74531C6.62578 6.83828 5.53828 6.25 4.3125 6.25C2.24062 6.25 0.5625 7.92812 0.5625 10C0.5625 12.0719 2.24062 13.75 4.3125 13.75C5.53828 13.75 6.62578 13.1617 7.31016 12.2547L11.9227 15.5945C11.85 15.843 11.8125 16.1055 11.8125 16.375C11.8125 17.9266 13.0734 19.1875 14.625 19.1875C16.1766 19.1875 17.4375 17.9266 17.4375 16.375C17.4375 14.8234 16.1766 13.5625 14.625 13.5625ZM14.625 2.40625C15.2977 2.40625 15.8438 2.95234 15.8438 3.625C15.8438 4.29766 15.2977 4.84375 14.625 4.84375C13.9523 4.84375 13.4062 4.29766 13.4062 3.625C13.4062 2.95234 13.9523 2.40625 14.625 2.40625ZM4.3125 12.0625C3.17578 12.0625 2.25 11.1367 2.25 10C2.25 8.86328 3.17578 7.9375 4.3125 7.9375C5.44922 7.9375 6.375 8.86328 6.375 10C6.375 11.1367 5.44922 12.0625 4.3125 12.0625ZM14.625 17.5938C13.9523 17.5938 13.4062 17.0477 13.4062 16.375C13.4062 15.7023 13.9523 15.1562 14.625 15.1562C15.2977 15.1562 15.8438 15.7023 15.8438 16.375C15.8438 17.0477 15.2977 17.5938 14.625 17.5938Z" />
</symbol>

<symbol viewBox="0 0 14 14" xmlns="http://www.w3.org/2000/svg" id="search">
<path d="M13.2125 12.3516L9.15469 8.29375C9.78438 7.47969 10.125 6.48438 10.125 5.4375C10.125 4.18438 9.63594 3.00937 8.75156 2.12344C7.86719 1.2375 6.68906 0.75 5.4375 0.75C4.18594 0.75 3.00781 1.23906 2.12344 2.12344C1.2375 3.00781 0.75 4.18438 0.75 5.4375C0.75 6.68906 1.23906 7.86719 2.12344 8.75156C3.00781 9.6375 4.18438 10.125 5.4375 10.125C6.48438 10.125 7.47813 9.78438 8.29219 9.15625L12.35 13.2125C12.3619 13.2244 12.376 13.2338 12.3916 13.2403C12.4071 13.2467 12.4238 13.2501 12.4406 13.2501C12.4575 13.2501 12.4741 13.2467 12.4897 13.2403C12.5052 13.2338 12.5194 13.2244 12.5312 13.2125L13.2125 12.5328C13.2244 12.5209 13.2338 12.5068 13.2403 12.4912C13.2467 12.4757 13.2501 12.459 13.2501 12.4422C13.2501 12.4254 13.2467 12.4087 13.2403 12.3931C13.2338 12.3776 13.2244 12.3635 13.2125 12.3516ZM7.9125 7.9125C7.25 8.57344 6.37187 8.9375 5.4375 8.9375C4.50313 8.9375 3.625 8.57344 2.9625 7.9125C2.30156 7.25 1.9375 6.37187 1.9375 5.4375C1.9375 4.50313 2.30156 3.62344 2.9625 2.9625C3.625 2.30156 4.50313 1.9375 5.4375 1.9375C6.37187 1.9375 7.25156 2.3 7.9125 2.9625C8.57344 3.625 8.9375 4.50313 8.9375 5.4375C8.9375 6.37187 8.57344 7.25156 7.9125 7.9125Z" />
</symbol>
    
<symbol viewBox="0 0 24 24" xmlns="http://www.w3.org/2000/svg" id="poweroff">
<path d="M16.5371 2.92734C16.5084 2.91289 16.4765 2.90604 16.4444 2.90747C16.4123 2.90889 16.3811 2.91854 16.3538 2.93548C16.3265 2.95242 16.3041 2.97608 16.2885 3.00421C16.273 3.03233 16.265 3.06397 16.2652 3.09609V4.60078C16.2652 4.72969 16.3332 4.84922 16.441 4.91953C16.9695 5.2522 17.4586 5.64376 17.8988 6.08672C18.6652 6.85547 19.2676 7.74844 19.6871 8.74219C20.121 9.77093 20.3434 10.8765 20.341 11.993C20.341 13.1203 20.1207 14.2148 19.6871 15.2438C19.268 16.2361 18.6608 17.1378 17.8988 17.8992C17.1394 18.6631 16.2382 19.2713 15.2457 19.6898C14.2191 20.1258 13.1246 20.3461 11.9996 20.3461C10.8746 20.3461 9.78007 20.1258 8.7535 19.6898C7.76102 19.2713 6.85978 18.6631 6.10038 17.8992C5.33843 17.1378 4.73115 16.2361 4.3121 15.2438C3.87823 14.215 3.65584 13.1095 3.65819 11.993C3.65819 10.8656 3.8785 9.77109 4.3121 8.74219C4.73163 7.74844 5.33397 6.85547 6.10038 6.08672C6.54569 5.64141 7.03319 5.25234 7.55819 4.91953C7.66835 4.85156 7.73397 4.72969 7.73397 4.60078V3.09375C7.73397 2.95312 7.58632 2.86406 7.4621 2.925C4.18319 4.575 1.92147 7.95234 1.8746 11.8664C1.80897 17.4633 6.38632 22.1133 11.9808 22.125C17.5824 22.1367 22.1246 17.5945 22.1246 11.9906C22.1246 8.025 19.8512 4.59141 16.5371 2.92734ZM11.2496 13.125H12.7496C12.8527 13.125 12.9371 13.0406 12.9371 12.9375V2.0625C12.9371 1.95937 12.8527 1.875 12.7496 1.875H11.2496C11.1465 1.875 11.0621 1.95937 11.0621 2.0625V12.9375C11.0621 13.0406 11.1465 13.125 11.2496 13.125Z" />
</symbol>

<symbol viewBox="0 0 16 16" xmlns="http://www.w3.org/2000/svg" id="fire">
<path d="M13.0328 7.33147C12.7295 6.64875 12.2885 6.03597 11.7375 5.53147L11.2828 5.11428C11.2674 5.10051 11.2488 5.09073 11.2287 5.08581C11.2086 5.08089 11.1876 5.08099 11.1675 5.08608C11.1475 5.09117 11.129 5.1011 11.1137 5.11501C11.0984 5.12892 11.0867 5.14638 11.0797 5.16585L10.8766 5.74866C10.75 6.11428 10.5172 6.48772 10.1875 6.85491C10.1656 6.87835 10.1406 6.8846 10.1234 6.88616C10.1063 6.88772 10.0797 6.8846 10.0562 6.86272C10.0344 6.84397 10.0234 6.81585 10.025 6.78772C10.0828 5.8471 9.80156 4.78616 9.18594 3.63147C8.67656 2.6721 7.96875 1.92366 7.08437 1.40178L6.43906 1.0221C6.35469 0.972098 6.24688 1.03772 6.25156 1.13616L6.28594 1.88616C6.30937 2.39866 6.25 2.85179 6.10938 3.22835C5.9375 3.68929 5.69062 4.11741 5.375 4.50179C5.15535 4.76891 4.90639 5.01053 4.63281 5.2221C3.97391 5.72861 3.43815 6.37762 3.06562 7.12054C2.69402 7.86993 2.50045 8.695 2.5 9.53147C2.5 10.269 2.64531 10.983 2.93281 11.6565C3.21042 12.3049 3.61103 12.8933 4.1125 13.3893C4.61875 13.8893 5.20625 14.283 5.86094 14.5565C6.53906 14.8408 7.25781 14.9846 8 14.9846C8.74219 14.9846 9.46094 14.8408 10.1391 14.558C10.7921 14.2862 11.386 13.8898 11.8875 13.3908C12.3938 12.8908 12.7906 12.3065 13.0672 11.658C13.3543 10.9864 13.5015 10.2634 13.5 9.53303C13.5 8.77053 13.3438 8.02991 13.0328 7.33147ZM11.1406 12.633C10.3016 13.4643 9.1875 13.9205 8 13.9205C6.8125 13.9205 5.69844 13.4643 4.85938 12.633C4.02344 11.8033 3.5625 10.7033 3.5625 9.53303C3.5625 8.85335 3.71563 8.20179 4.01719 7.59554C4.31094 7.00335 4.74844 6.47366 5.27969 6.06585C5.6185 5.80678 5.9258 5.50891 6.19531 5.17835C6.58594 4.70179 6.89219 4.17053 7.10469 3.60022C7.19185 3.36497 7.25519 3.12156 7.29375 2.87366C7.67031 3.22054 7.98594 3.63928 8.25 4.12991C8.77187 5.10803 9.0125 5.97835 8.96562 6.71897C8.95443 6.8934 8.98291 7.06811 9.04895 7.22994C9.11498 7.39178 9.21684 7.53654 9.34688 7.65335C9.45956 7.75514 9.59135 7.83352 9.73458 7.88395C9.87782 7.93438 10.0296 7.95584 10.1812 7.9471C10.4891 7.93147 10.7719 7.79554 10.9781 7.56585C11.1859 7.33304 11.3656 7.09554 11.5156 6.85335C11.7344 7.13304 11.9172 7.43772 12.0625 7.76585C12.3109 8.32522 12.4375 8.92053 12.4375 9.53303C12.4375 10.7033 11.9766 11.8049 11.1406 12.633Z" />
</symbol>

<symbol viewBox="0 0 14 12" xmlns="http://www.w3.org/2000/svg" id="video">
<path d="M13.25 2.72344L11.25 3.875V1.5C11.25 0.948438 10.8016 0.5 10.25 0.5H1C0.448438 0.5 0 0.948438 0 1.5V10.5C0 11.0516 0.448438 11.5 1 11.5H10.25C10.8016 11.5 11.25 11.0516 11.25 10.5V8.125L13.25 9.27656C13.5828 9.46875 14 9.22812 14 8.84531V3.15625C14 2.77187 13.5828 2.53125 13.25 2.72344ZM10.125 10.375H1.125V1.625H10.125V10.375ZM12.875 7.76562L11.25 6.83125V5.17031L12.875 4.23438V7.76562ZM2.25 3.625H4C4.06875 3.625 4.125 3.56875 4.125 3.5V2.75C4.125 2.68125 4.06875 2.625 4 2.625H2.25C2.18125 2.625 2.125 2.68125 2.125 2.75V3.5C2.125 3.56875 2.18125 3.625 2.25 3.625Z" />
</symbol>

<symbol viewBox="0 0 14 12" xmlns="http://www.w3.org/2000/svg" id="foto">
<path d="M13.5 0.5H0.5C0.223437 0.5 0 0.723437 0 1V11C0 11.2766 0.223437 11.5 0.5 11.5H13.5C13.7766 11.5 14 11.2766 14 11V1C14 0.723437 13.7766 0.5 13.5 0.5ZM12.875 10.375H1.125V9.75156L3.28906 7.18437L5.63438 9.96562L9.28281 5.64062L12.875 9.9V10.375ZM12.875 8.34688L9.37813 4.2C9.32812 4.14062 9.2375 4.14062 9.1875 4.2L5.63438 8.4125L3.38438 5.74531C3.33438 5.68594 3.24375 5.68594 3.19375 5.74531L1.125 8.19844V1.625H12.875V8.34688ZM3.75 5.125C3.93057 5.125 4.10937 5.08943 4.27619 5.02033C4.44301 4.95123 4.59459 4.84995 4.72227 4.72227C4.84995 4.59459 4.95123 4.44301 5.02033 4.27619C5.08943 4.10937 5.125 3.93057 5.125 3.75C5.125 3.56943 5.08943 3.39063 5.02033 3.22381C4.95123 3.05699 4.84995 2.90541 4.72227 2.77773C4.59459 2.65005 4.44301 2.54877 4.27619 2.47967C4.10937 2.41057 3.93057 2.375 3.75 2.375C3.38533 2.375 3.03559 2.51987 2.77773 2.77773C2.51987 3.03559 2.375 3.38533 2.375 3.75C2.375 4.11467 2.51987 4.46441 2.77773 4.72227C3.03559 4.98013 3.38533 5.125 3.75 5.125ZM3.75 3.3125C3.99219 3.3125 4.1875 3.50781 4.1875 3.75C4.1875 3.99219 3.99219 4.1875 3.75 4.1875C3.50781 4.1875 3.3125 3.99219 3.3125 3.75C3.3125 3.50781 3.50781 3.3125 3.75 3.3125Z" />
</symbol>

</svg>
